<?xml version="1.0" encoding="utf-8"?>
<svg xmlns="http://www.w3.org/2000/svg" style="margin: auto; background: rgba(241, 242, 243, 0) none repeat scroll 0% 0%; display: block; shape-rendering: auto;" width="290" height="250" preserveAspectRatio="xMidYMid">
<style type="text/css">
  text {
    text-anchor: middle; font-size: 65px; opacity: 0;
  }
</style>
<g transform="matrix(1, 0, 0, 1, 145, 125)">
  <g transform="matrix(1, 0, 0, 1, 0, 0)"><g class="path" style="transform-origin: -69.9167px 1.20832px 0px; transform: scale(0.91); animation: 1s linear -0.55s infinite normal forwards running breath-b772ede3-6c8a-4ee9-af7a-e0dbf159eba3;"><path d="M25.61-8.92L25.61-8.92L25.61-8.92Q25.61-6.95 24.87-5.21L24.87-5.21L24.87-5.21Q24.12-3.46 22.82-2.16L22.82-2.16L22.82-2.16Q21.52-0.86 19.77-0.11L19.77-0.11L19.77-0.11Q18.03 0.63 16.06 0.63L16.06 0.63L13.46 0.63L13.46 0.63Q11.49 0.63 9.74-0.11L9.74-0.11L9.74-0.11Q8.00-0.86 6.70-2.16L6.70-2.16L6.70-2.16Q5.40-3.46 4.65-5.21L4.65-5.21L4.65-5.21Q3.90-6.95 3.90-8.92L3.90-8.92L3.90-23.58L3.90-23.58Q3.90-25.55 4.65-27.29L4.65-27.29L4.65-27.29Q5.40-29.04 6.70-30.34L6.70-30.34L6.70-30.34Q8.00-31.64 9.74-32.39L9.74-32.39L9.74-32.39Q11.49-33.13 13.46-33.13L13.46-33.13L16.06-33.13L16.06-33.13Q18.03-33.13 19.77-32.39L19.77-32.39L19.77-32.39Q21.52-31.64 22.82-30.34L22.82-30.34L22.82-30.34Q24.12-29.04 24.87-27.29L24.87-27.29L24.87-27.29Q25.61-25.55 25.61-23.58L25.61-23.58L25.61-8.92zM21.71-8.70L21.71-23.80L21.71-23.80Q21.71-24.98 21.26-26.01L21.26-26.01L21.26-26.01Q20.82-27.04 20.06-27.80L20.06-27.80L20.06-27.80Q19.30-28.56 18.27-29.01L18.27-29.01L18.27-29.01Q17.23-29.45 16.06-29.45L16.06-29.45L13.46-29.45L13.46-29.45Q12.28-29.45 11.25-29.01L11.25-29.01L11.25-29.01Q10.22-28.56 9.46-27.80L9.46-27.80L9.46-27.80Q8.70-27.04 8.25-26.01L8.25-26.01L8.25-26.01Q7.81-24.98 7.81-23.80L7.81-23.80L7.81-8.70L7.81-8.70Q7.81-7.52 8.25-6.49L8.25-6.49L8.25-6.49Q8.70-5.46 9.46-4.70L9.46-4.70L9.46-4.70Q10.22-3.94 11.25-3.49L11.25-3.49L11.25-3.49Q12.28-3.05 13.46-3.05L13.46-3.05L16.06-3.05L16.06-3.05Q17.23-3.05 18.27-3.49L18.27-3.49L18.27-3.49Q19.30-3.94 20.06-4.70L20.06-4.70L20.06-4.70Q20.82-5.46 21.26-6.49L21.26-6.49L21.26-6.49Q21.71-7.52 21.71-8.70L21.71-8.70" fill="#491212" stroke="none" stroke-width="none" transform="translate(-84.66670989990234,17.456785380045588)" style="fill: rgb(41, 9, 8);"></path></g><g class="path" style="transform-origin: -40.3999px 1.20832px 0px; transform: scale(0.91); animation: 1s linear -0.44s infinite normal forwards running breath-b772ede3-6c8a-4ee9-af7a-e0dbf159eba3;"><path d="M55.13-8.92L55.13-8.92L55.13-8.92Q55.13-6.95 54.38-5.21L54.38-5.21L54.38-5.21Q53.64-3.46 52.34-2.16L52.34-2.16L52.34-2.16Q51.04-0.86 49.29-0.11L49.29-0.11L49.29-0.11Q47.54 0.63 45.58 0.63L45.58 0.63L42.97 0.63L42.97 0.63Q41.01 0.63 39.26-0.11L39.26-0.11L39.26-0.11Q37.51-0.86 36.21-2.16L36.21-2.16L36.21-2.16Q34.91-3.46 34.17-5.21L34.17-5.21L34.17-5.21Q33.42-6.95 33.42-8.92L33.42-8.92L33.42-23.58L33.42-23.58Q33.42-25.55 34.17-27.29L34.17-27.29L34.17-27.29Q34.91-29.04 36.21-30.34L36.21-30.34L36.21-30.34Q37.51-31.64 39.26-32.39L39.26-32.39L39.26-32.39Q41.01-33.13 42.97-33.13L42.97-33.13L45.58-33.13L45.58-33.13Q47.54-33.13 49.29-32.39L49.29-32.39L49.29-32.39Q51.04-31.64 52.34-30.34L52.34-30.34L52.34-30.34Q53.64-29.04 54.38-27.29L54.38-27.29L54.38-27.29Q55.13-25.55 55.13-23.58L55.13-23.58L55.13-8.92zM51.23-8.70L51.23-23.80L51.23-23.80Q51.23-24.98 50.78-26.01L50.78-26.01L50.78-26.01Q50.34-27.04 49.58-27.80L49.58-27.80L49.58-27.80Q48.81-28.56 47.78-29.01L47.78-29.01L47.78-29.01Q46.75-29.45 45.58-29.45L45.58-29.45L42.97-29.45L42.97-29.45Q41.80-29.45 40.77-29.01L40.77-29.01L40.77-29.01Q39.74-28.56 38.97-27.80L38.97-27.80L38.97-27.80Q38.21-27.04 37.77-26.01L37.77-26.01L37.77-26.01Q37.32-24.98 37.32-23.80L37.32-23.80L37.32-8.70L37.32-8.70Q37.32-7.52 37.77-6.49L37.77-6.49L37.77-6.49Q38.21-5.46 38.97-4.70L38.97-4.70L38.97-4.70Q39.74-3.94 40.77-3.49L40.77-3.49L40.77-3.49Q41.80-3.05 42.97-3.05L42.97-3.05L45.58-3.05L45.58-3.05Q46.75-3.05 47.78-3.49L47.78-3.49L47.78-3.49Q48.81-3.94 49.58-4.70L49.58-4.70L49.58-4.70Q50.34-5.46 50.78-6.49L50.78-6.49L50.78-6.49Q51.23-7.52 51.23-8.70L51.23-8.70" fill="#491212" stroke="none" stroke-width="none" transform="translate(-84.66670989990234,17.456785380045588)" style="fill: rgb(73, 18, 18);"></path></g><g class="path" style="transform-origin: -10.875px -4.98331px 0px; transform: scale(0.91); animation: 1s linear -0.33s infinite normal forwards running breath-b772ede3-6c8a-4ee9-af7a-e0dbf159eba3;"><path d="M84.65-8.92L84.65-8.92L84.65-8.92Q84.65-6.95 83.90-5.21L83.90-5.21L83.90-5.21Q83.15-3.46 81.85-2.16L81.85-2.16L81.85-2.16Q80.55-0.86 78.81-0.11L78.81-0.11L78.81-0.11Q77.06 0.63 75.09 0.63L75.09 0.63L72.49 0.63L72.49 0.63Q70.52 0.63 68.78-0.11L68.78-0.11L68.78-0.11Q67.03-0.86 65.73-2.16L65.73-2.16L65.73-2.16Q64.43-3.46 63.68-5.21L63.68-5.21L63.68-5.21Q62.94-6.95 62.94-8.92L62.94-8.92L62.94-45.51L66.84-45.51L66.84-29.77L66.84-29.77Q68.17-31.36 70.05-32.25L70.05-32.25L70.05-32.25Q71.92-33.13 74.11-33.13L74.11-33.13L75.09-33.13L75.09-33.13Q77.06-33.13 78.81-32.39L78.81-32.39L78.81-32.39Q80.55-31.64 81.85-30.34L81.85-30.34L81.85-30.34Q83.15-29.04 83.90-27.29L83.90-27.29L83.90-27.29Q84.65-25.55 84.65-23.58L84.65-23.58L84.65-8.92zM80.74-8.70L80.74-23.80L80.74-23.80Q80.74-24.98 80.30-26.01L80.30-26.01L80.30-26.01Q79.85-27.04 79.09-27.80L79.09-27.80L79.09-27.80Q78.33-28.56 77.30-29.01L77.30-29.01L77.30-29.01Q76.27-29.45 75.09-29.45L75.09-29.45L72.49-29.45L72.49-29.45Q71.32-29.45 70.28-29.01L70.28-29.01L70.28-29.01Q69.25-28.56 68.49-27.80L68.49-27.80L68.49-27.80Q67.73-27.04 67.29-26.01L67.29-26.01L67.29-26.01Q66.84-24.98 66.84-23.80L66.84-23.80L66.84-8.70L66.84-8.70Q66.84-7.52 67.29-6.49L67.29-6.49L67.29-6.49Q67.73-5.46 68.49-4.70L68.49-4.70L68.49-4.70Q69.25-3.94 70.28-3.49L70.28-3.49L70.28-3.49Q71.32-3.05 72.49-3.05L72.49-3.05L75.09-3.05L75.09-3.05Q76.27-3.05 77.30-3.49L77.30-3.49L77.30-3.49Q78.33-3.94 79.09-4.70L79.09-4.70L79.09-4.70Q79.85-5.46 80.30-6.49L80.30-6.49L80.30-6.49Q80.74-7.52 80.74-8.70L80.74-8.70" fill="#491212" stroke="none" stroke-width="none" transform="translate(-84.66670989990234,17.456785380045588)" style="fill: rgb(131, 26, 25);"></path></g><g class="path" style="transform-origin: 18.625px 1.20832px 0px; transform: scale(0.91); animation: 1s linear -0.22s infinite normal forwards running breath-b772ede3-6c8a-4ee9-af7a-e0dbf159eba3;"><path d="M114.16-8.92L114.16-8.92L114.16-8.92Q114.16-6.95 113.42-5.21L113.42-5.21L113.42-5.21Q112.67-3.46 111.37-2.16L111.37-2.16L111.37-2.16Q110.07-0.86 108.32-0.11L108.32-0.11L108.32-0.11Q106.58 0.63 104.61 0.63L104.61 0.63L102.01 0.63L102.01 0.63Q100.04 0.63 98.29-0.11L98.29-0.11L98.29-0.11Q96.55-0.86 95.25-2.16L95.25-2.16L95.25-2.16Q93.95-3.46 93.20-5.21L93.20-5.21L93.20-5.21Q92.45-6.95 92.45-8.92L92.45-8.92L92.45-23.58L92.45-23.58Q92.45-25.55 93.20-27.29L93.20-27.29L93.20-27.29Q93.95-29.04 95.25-30.34L95.25-30.34L95.25-30.34Q96.55-31.64 98.29-32.39L98.29-32.39L98.29-32.39Q100.04-33.13 102.01-33.13L102.01-33.13L104.61-33.13L104.61-33.13Q106.58-33.13 108.32-32.39L108.32-32.39L108.32-32.39Q110.07-31.64 111.37-30.34L111.37-30.34L111.37-30.34Q112.67-29.04 113.42-27.29L113.42-27.29L113.42-27.29Q114.16-25.55 114.16-23.58L114.16-23.58L114.16-15.93L96.36-15.93L96.36-8.70L96.36-8.70Q96.36-7.52 96.80-6.49L96.80-6.49L96.80-6.49Q97.25-5.46 98.01-4.70L98.01-4.70L98.01-4.70Q98.77-3.94 99.80-3.49L99.80-3.49L99.80-3.49Q100.83-3.05 102.01-3.05L102.01-3.05L104.61-3.05L104.61-3.05Q105.78-3.05 106.82-3.49L106.82-3.49L106.82-3.49Q107.85-3.94 108.61-4.70L108.61-4.70L108.61-4.70Q109.37-5.46 109.81-6.49L109.81-6.49L109.81-6.49Q110.26-7.52 110.26-8.70L110.26-8.70L110.26-10.85L114.16-10.22L114.16-8.92zM110.26-18.98L110.26-23.80L110.26-23.80Q110.26-24.98 109.81-26.01L109.81-26.01L109.81-26.01Q109.37-27.04 108.61-27.80L108.61-27.80L108.61-27.80Q107.85-28.56 106.82-29.01L106.82-29.01L106.82-29.01Q105.78-29.45 104.61-29.45L104.61-29.45L102.01-29.45L102.01-29.45Q100.83-29.45 99.80-29.01L99.80-29.01L99.80-29.01Q98.77-28.56 98.01-27.80L98.01-27.80L98.01-27.80Q97.25-27.04 96.80-26.01L96.80-26.01L96.80-26.01Q96.36-24.98 96.36-23.80L96.36-23.80L96.36-18.98L110.26-18.98" fill="#491212" stroke="none" stroke-width="none" transform="translate(-84.66670989990234,17.456785380045588)" style="fill: rgb(194, 66, 41);"></path></g><g class="path" style="transform-origin: 48.15px 0.891647px 0px; transform: scale(0.91); animation: 1s linear -0.11s infinite normal forwards running breath-b772ede3-6c8a-4ee9-af7a-e0dbf159eba3;"><path d="M143.68 0L139.78 0L139.78-23.80L139.78-23.80Q139.78-24.98 139.33-26.01L139.33-26.01L139.33-26.01Q138.89-27.04 138.13-27.80L138.13-27.80L138.13-27.80Q137.36-28.56 136.33-29.01L136.33-29.01L136.33-29.01Q135.30-29.45 134.13-29.45L134.13-29.45L131.52-29.45L131.52-29.45Q130.35-29.45 129.32-29.01L129.32-29.01L129.32-29.01Q128.29-28.56 127.52-27.80L127.52-27.80L127.52-27.80Q126.76-27.04 126.32-26.01L126.32-26.01L126.32-26.01Q125.87-24.98 125.87-23.80L125.87-23.80L125.87 0L121.97 0L121.97-32.50L123.27-32.50L125.40-29.20L125.40-29.20Q126.73-31.01 128.75-32.07L128.75-32.07L128.75-32.07Q130.76-33.13 133.14-33.13L133.14-33.13L134.13-33.13L134.13-33.13Q136.09-33.13 137.84-32.39L137.84-32.39L137.84-32.39Q139.58-31.64 140.89-30.34L140.89-30.34L140.89-30.34Q142.19-29.04 142.93-27.29L142.93-27.29L142.93-27.29Q143.68-25.55 143.68-23.58L143.68-23.58L143.68 0" fill="#491212" stroke="none" stroke-width="none" transform="translate(-84.66670989990234,17.456785380045588)" style="fill: rgb(221, 132, 55);"></path></g><g class="path" style="transform-origin: 77.6667px 0.891647px 0px; transform: scale(0.91); animation: 1s linear 0s infinite normal forwards running breath-b772ede3-6c8a-4ee9-af7a-e0dbf159eba3;"><path d="M173.20 0L169.29 0L169.29-23.80L169.29-23.80Q169.29-24.98 168.85-26.01L168.85-26.01L168.85-26.01Q168.40-27.04 167.64-27.80L167.64-27.80L167.64-27.80Q166.88-28.56 165.85-29.01L165.85-29.01L165.85-29.01Q164.82-29.45 163.64-29.45L163.64-29.45L161.04-29.45L161.04-29.45Q159.87-29.45 158.83-29.01L158.83-29.01L158.83-29.01Q157.80-28.56 157.04-27.80L157.04-27.80L157.04-27.80Q156.28-27.04 155.83-26.01L155.83-26.01L155.83-26.01Q155.39-24.98 155.39-23.80L155.39-23.80L155.39 0L151.49 0L151.49-32.50L152.79-32.50L154.91-29.20L154.91-29.20Q156.25-31.01 158.26-32.07L158.26-32.07L158.26-32.07Q160.28-33.13 162.66-33.13L162.66-33.13L163.64-33.13L163.64-33.13Q165.61-33.13 167.36-32.39L167.36-32.39L167.36-32.39Q169.10-31.64 170.40-30.34L170.40-30.34L170.40-30.34Q171.70-29.04 172.45-27.29L172.45-27.29L172.45-27.29Q173.20-25.55 173.20-23.58L173.20-23.58L173.20 0" fill="#491212" stroke="none" stroke-width="none" transform="translate(-84.66670989990234,17.456785380045588)" style="fill: rgb(238, 180, 64);"></path></g></g>
</g>
<style id="breath-b772ede3-6c8a-4ee9-af7a-e0dbf159eba3" data-anikit="">@keyframes breath-b772ede3-6c8a-4ee9-af7a-e0dbf159eba3
{
  0% {
    animation-timing-function: cubic-bezier(0.9647,0.2413,-0.0705,0.7911);
    transform: scale(0.9099999999999999);
  }
  51% {
    animation-timing-function: cubic-bezier(0.9226,0.2631,-0.0308,0.7628);
    transform: scale(1.02994);
  }
  100% {
    transform: scale(0.9099999999999999);
  }
}</style><style id="breath-b772ede3-6c8a-4ee9-af7a-e0dbf159eba3" data-anikit="">@keyframes breath-b772ede3-6c8a-4ee9-af7a-e0dbf159eba3
{
  0% {
    animation-timing-function: cubic-bezier(0.9647,0.2413,-0.0705,0.7911);
    transform: scale(0.9099999999999999);
  }
  51% {
    animation-timing-function: cubic-bezier(0.9226,0.2631,-0.0308,0.7628);
    transform: scale(1.02994);
  }
  100% {
    transform: scale(0.9099999999999999);
  }
}</style></svg>